<?xml version="1.0" encoding="UTF-8" standalone="no"?>
<!-- Created with Inkscape (http://www.inkscape.org/) -->

<svg
   xmlns:dc="http://purl.org/dc/elements/1.1/"
   xmlns:cc="http://creativecommons.org/ns#"
   xmlns:rdf="http://www.w3.org/1999/02/22-rdf-syntax-ns#"
   xmlns:svg="http://www.w3.org/2000/svg"
   xmlns="http://www.w3.org/2000/svg"
   version="1.1"
   width="82.746246"
   height="70.493752"
   id="svg2"
   xml:space="preserve"><metadata
     id="metadata8"><rdf:RDF><cc:Work
         rdf:about=""><dc:format>image/svg+xml</dc:format><dc:type
           rdf:resource="http://purl.org/dc/dcmitype/StillImage" /><dc:title></dc:title></cc:Work></rdf:RDF></metadata><defs
     id="defs6"><clipPath
       id="clipPath20"><path
         d="M 0,0 130,0 130,252 0,252 0,0 z"
         id="path22" /></clipPath><clipPath
       id="clipPath30"><path
         d="m 0,2514.72 1300,0 0,-2510.00125 -1300,0 L 0,2514.72 z"
         id="path32" /></clipPath></defs><g
     transform="matrix(1.25,0,0,-1.25,30.7425,47.20375)"
     id="g10"><g
       transform="scale(0.13083,0.13083)"
       id="g12"><g
         id="g14"><g
           id="g16"><g
             clip-path="url(#clipPath20)"
             id="g18"><g
               transform="scale(0.1,0.1)"
               id="g24"><g
                 id="g26"><g
                   clip-path="url(#clipPath30)"
                   id="g28"><path
                     d="m 0,554.41 c 0,368.711 187.27,424.531 311.988,627.97 27.934,45.59 47.742,71.02 47.742,163.87 2.34,271.79 0,630.74 0,748.79 -5.781,2.18 -28.21,1.6 -67.699,2.3 -79.371,1.41 -166.293,-13.01 -184.801,-2.3 0,0 -12.3081,99.68 0,99.68 12.93,0 84.532,-0.47 135.469,-2.85 29.02,-1.33 67.852,-0.27 117.031,2.85 0,59.03 -1.179,308.01 0,319.5 31.872,1.01 110.348,0.23 140.54,0 l 0,-319.5 c 22.781,-2.89 29.96,0 55.429,0 l 0,118.01 c 0,15 22.742,12.03 50.75,12.03 21.641,0 61.481,4.18 61.481,-11.33 0,-17.46 -1.879,-67.07 -0.16,-118.71 16.449,0 35.55,-2.57 53.441,0 0,87.5 -5.231,299.57 0,319.5 30.629,-0.79 111.25,1.32 140.59,0 -0.16,-31.68 0,-227.7 0,-319.5 30,0 54.57,0.16 79.57,0 39.41,0 43.008,-63.86 67.889,-141.68 4.92,-15.43 29.26,-10.23 127.15,-10.23 53.86,0 95.47,-3.32 135.89,-7.11 34.3,-3.2 23.21,-45.16 23.21,-65.82 0,-39.84 -9.57,-93.32 -89.22,-86.6 -142.15,12.03 -197.97,16.25 -213.989,46.25 -4.602,8.67 -31.481,96.76 -39.602,120.97 -12.929,37.47 -10.277,46.22 -90.898,44.54 l 0,-748.79 c 0,-53.83 13.75,-105.16 49.449,-163.87 C 1107.23,945.109 1224.06,895 1224.06,554.41 1224.06,58.8594 791.449,-74.5 606.449,58.2812 430.078,-65.8203 0,105.352 0,554.41 z m 1100.78,0 C 1089.06,871.949 850.43,1060.54 796.68,1182.38 735,1100.62 724.379,1083.47 678.98,1003.86 791.328,844.059 861.801,745.578 861.801,554.41 861.801,363.238 780.898,235.148 699.57,127.5 875,46.7188 1112.46,236.871 1100.78,554.41 z M 522.27,127.5 c -97.891,157.031 -162.54,255.109 -162.54,426.91 0,171.801 79.719,286.371 180.348,446.88 C 503.281,1073 488.871,1101.52 429.961,1182.38 323.871,921.359 115.98,820.969 115.98,554.41 115.98,287.809 366.68,63.3203 522.27,127.5 z m 84.179,746.09 C 544.57,757.969 498.789,661.719 500.27,554.41 c 1.531,-107.34 45.32,-225 106.179,-346.91 63.43,125.66 114.449,239.719 114.762,346.91 0.309,107.149 -47.891,207.621 -114.762,319.18 z m 114.762,472.66 0,748.79 c -32.191,1.99 -40.512,2.22 -53.281,0 -3.051,-29.69 0,-95.12 0,-146.22 0,-9.06 -23.129,-6.32 -60.43,-6.32 -38.09,0 -51.801,-7.62 -51.801,16.17 0,36.29 8.012,94.33 0,136.37 -10.187,0 -26.051,-1.25 -55.429,0 l 0,-748.79 c 0,-79.61 38.558,-151.6 107.109,-252.7 76.68,88.83 113.832,162.31 113.832,252.7 z"
                     id="path34"
                     style="fill:#000000;fill-opacity:1;fill-rule:nonzero;stroke:none" /></g></g></g></g></g></g></g><g
       transform="translate(-24.594,-18.632)"
       id="g36"><text
         transform="matrix(1,0,0,-1,3.318,4.684)"
         id="text38"><tspan
           x="0 6.4199262 14.166877 21.471485 28.776094 36.750191 42.954926 48.717319 56.021927"
           y="0"
           id="tspan40"
           style="font-size:11.95516968px;font-variant:normal;font-weight:900;writing-mode:lr-tb;fill:#000000;fill-opacity:1;fill-rule:nonzero;stroke:none;font-family:Present LT Std;-inkscape-font-specification:PresentLTStd-Black">sound-rel</tspan></text>
</g></g></svg>